<svg width="174" height="32" xmlns="http://www.w3.org/2000/svg" class="el-tooltip" preserveAspectRatio="xMidYMid meet">

 <g>
  <title>background</title>
  <rect fill="none" id="canvas_background" height="34" width="176" y="-1" x="-1"/>
 </g>
 <g>
  <title>Layer 1</title>
  <g stroke="null" id="svg_3" fill="#41afa5">
   <g stroke="null" id="svg_4">
    <rect stroke="null" id="svg_5" height="28.533504" width="27.918139" y="2.419952" x="5.763219" fill-opacity="0" fill="#41afa5"/>
    <g stroke="null" transform="matrix(0.5583627890965772,0,0,0.5583627890965772,2.829549579365887,2.3936526578875363) " y="5.419952" x="7.045006" id="svg_34">
     <svg stroke="null" id="svg_6" height="51.102088" width="50" y="0.047102" x="5.254056">
      <g stroke="null" id="svg_35">
       <svg stroke="null" id="svg_7" viewBox="0 0 86.2 88.1">
        <path stroke="null" id="svg_8" fill="#9bb9bc" d="m81,47.6c0.7,-3.4 0.2,-11.9 -0.9,-17.1c-1.1,-5.1 -5.1,-14.6 -5.2,-14.8c-3.7,-4.1 -8.1,-7.7 -10.2,-9.2c-3.4,-2.5 -17.7,-4 -21.5,-4s-18.2,1.6 -21.5,4c-2,1.5 -6.4,5.1 -10.2,9.2c-0.1,0.3 -4.1,9.7 -5.2,14.8c-1.1,5.2 -1.6,13.7 -0.9,17.1c0.7,3.4 3.5,15.5 5.7,19.3c1.6,2.8 8,9.5 11.3,12.9c8.2,2.7 18,4.8 20.9,4.8c2.9,0 12.6,-2.2 20.9,-4.8c3.3,-3.4 9.7,-10.1 11.3,-12.9c2,-3.8 4.8,-15.9 5.5,-19.3z"/>
        <path stroke="null" id="svg_9" fill="#7ba1a3" d="m85.9,50.7c1.3,-6.9 -2.9,-19.5 -5.4,-26.5c-1,-2.8 -3.2,-5.8 -5.7,-8.5c0.1,0.2 4.1,9.6 5.2,14.8c1.1,5.2 1.6,13.7 0.9,17.1c-0.7,3.4 -3.5,15.5 -5.7,19.3c-1.6,2.8 -8,9.5 -11.3,12.9c4.1,-1.3 7.8,-2.7 10.1,-4.1c7.2,-4 10.6,-18 11.9,-25zm-80.7,-3.1c-0.7,-3.4 -0.2,-11.9 0.9,-17.1c1.1,-5.1 5.1,-14.4 5.2,-14.8c-2.5,2.8 -4.7,5.7 -5.7,8.5c-2.5,6.9 -6.7,19.5 -5.4,26.5c1.3,6.9 4.8,21 11.8,25c2.3,1.3 6,2.8 10.1,4.1c-3.3,-3.4 -9.7,-10.1 -11.3,-12.9c-2.1,-3.8 -4.9,-15.9 -5.6,-19.3z"/>
        <path stroke="null" id="svg_10" fill="#212121" d="m56.1,33.1c-0.3,-1.8 2,-4.4 3,-4.8c1,-0.4 5.1,0.3 6.3,1.3c1.2,1 0.7,4.8 0,6.1c-0.7,1.3 -4,1.8 -5.5,1.6c-1.4,-0.4 -3.5,-2.9 -3.8,-4.2z"/>
        <path stroke="null" id="svg_11" fill="#fff" d="m63.4,30.2c0.5,0 1.1,0.6 1.2,0.8c0.1,0.3 -0.2,1.3 -0.4,1.6c-0.3,0.3 -1.2,0.1 -1.5,-0.1c-0.3,-0.2 -0.4,-1 -0.3,-1.4c0,-0.4 0.7,-0.9 1,-0.9z"/>
        <path stroke="null" id="svg_12" fill="#212121" d="m30,33.1c0.3,-1.8 -2,-4.4 -3,-4.8c-1,-0.4 -5.1,0.3 -6.3,1.3c-1.2,1 -0.7,4.8 0,6.1c0.7,1.3 4,1.8 5.5,1.6c1.5,-0.4 3.6,-2.9 3.8,-4.2z"/>
        <path stroke="null" id="svg_13" fill="#fff" d="m26.7,30.2c0.5,0 1.1,0.6 1.2,0.8c0.1,0.3 -0.2,1.3 -0.4,1.6c-0.3,0.3 -1.2,0.1 -1.5,-0.1c-0.3,-0.2 -0.4,-1 -0.3,-1.4c0,-0.4 0.6,-0.9 1,-0.9z"/>
        <path stroke="null" id="svg_14" fill="#9bb9bc" d="m56.4,36.5s3.6,-1.4 5,-1.4s6.9,1 6.9,1l-5.7,3.4l-6.2,-3zm-26.6,0s-3.6,-1.4 -5,-1.4s-6.9,1 -6.9,1l5.7,3.4l6.2,-3zm35.1,-25.1l0,-4.4c0,-1.5 4.9,-5.5 6,-6.1c1.3,-0.7 12.3,-0.8 13.9,-0.9c0,0 -2.3,8.9 -3.2,11.4c-1,2.5 -4,4.8 -5.1,5.4c-1.1,0.6 -3.1,1.1 -3.1,1.1s-5.2,-2.4 -8.5,-6.5z"/>
        <path stroke="null" id="svg_15" fill="#7ba1a3" d="m70.9,10c-0.2,0.4 -0.5,2.4 -0.7,3.9c1,1.1 1.7,2 1.7,2s3.6,-0.8 4.8,-1.9c1.1,-1.1 3,-3.8 3.5,-5.5c0.5,-1.7 1.2,-6.5 1.2,-6.5s-5.6,2.1 -6.7,2.9s-3.6,4.4 -3.8,5.1z"/>
        <path stroke="null" id="svg_16" fill="#648484" d="m69.6,7.3c-0.5,1.2 -1.2,4.8 -1.2,4.8c0.6,0.6 1.2,1.3 1.7,1.9c0.2,-1.5 0.6,-3.5 0.7,-3.9c0.3,-0.7 2.7,-4.1 3.8,-5s6.7,-2.9 6.7,-2.9s-7.8,0.5 -8.4,0.8c-0.6,0.3 -2.8,3.1 -3.3,4.3z"/>
        <g stroke="null" id="svg_17">
         <path stroke="null" id="svg_18" fill="#9bb9bc" d="m21.3,11.4l0,-4.4c0,-1.5 -4.9,-5.5 -6,-6.1c-1.3,-0.7 -12.3,-0.8 -13.9,-0.9c0,0 2.3,8.9 3.2,11.4c1,2.5 4,4.8 5.1,5.4c1.1,0.6 3.1,1.1 3.1,1.1s5.2,-2.4 8.5,-6.5z"/>
         <path stroke="null" id="svg_19" fill="#7ba1a3" d="m15.3,10c0.2,0.4 0.5,2.4 0.7,3.9c-1,1.1 -1.7,2 -1.7,2s-3.6,-0.8 -4.8,-1.9c-1.1,-1.1 -3,-3.8 -3.5,-5.5c-0.4,-1.6 -1.1,-6.4 -1.1,-6.4s5.6,2.1 6.7,2.9c1,0.9 3.4,4.3 3.7,5z"/>
         <path stroke="null" id="svg_20" fill="#648484" d="m16.6,7.3c0.5,1.2 1.2,4.8 1.2,4.8c-0.6,0.6 -1.2,1.3 -1.7,1.9c-0.2,-1.5 -0.6,-3.5 -0.7,-3.9c-0.3,-0.7 -2.7,-4.1 -3.8,-5c-1.1,-0.8 -6.7,-2.9 -6.7,-2.9s7.8,0.5 8.4,0.9c0.6,0.2 2.8,3 3.3,4.2z"/>
        </g>
        <g stroke="null" id="svg_21">
         <path stroke="null" id="svg_22" fill="#7ba1a3" d="m66.2,71.1c-1.8,2.6 -16.3,6.8 -18.3,7.3s-4.8,0.8 -4.8,0.8s-2.8,-0.2 -4.8,-0.8c-2,-0.5 -16.5,-4.7 -18.3,-7.3c-1.8,-2.6 -5.4,-11.2 -6.6,-15.4c-1.2,-4.2 -1.8,-13.8 -1.8,-13.8s-0.2,13.6 0.2,17.4c0.5,3.8 5.1,15.5 6.1,17.3c1,1.8 6.4,6.3 6.4,6.3l18.7,5.3l18.7,-5.3s5.4,-4.5 6.4,-6.3c1,-1.8 5.7,-13.5 6.1,-17.3c0.5,-3.8 0.2,-17.4 0.2,-17.4s-0.5,9.7 -1.8,13.8c-1.1,4.3 -4.6,12.8 -6.4,15.4z"/>
         <path stroke="null" id="svg_23" fill="#9bb9bc" d="m11.1,38.8s-5.1,0.4 -5.2,0.6c-0.1,0.2 1.8,4.8 1.8,4.8l3.9,-2.4l4,-0.2l-4.5,-2.8zm69.1,0.7c-0.1,-0.2 -5.2,-0.6 -5.2,-0.6l-4.5,2.9l4,0.2l3.9,2.4c0.1,-0.1 1.9,-4.7 1.8,-4.9zm-9.6,2.2l-27.5,-1.7l-27.5,1.7l27.5,17.5l27.5,-17.5z"/>
        </g>
        <g stroke="null" id="svg_24">
         <path stroke="null" id="svg_25" fill="#eae9e1" d="m43.1,12.9s-8.5,19.4 -9.3,21.9c-0.8,2.5 -2.9,11.3 -2.9,11.3s4.4,5.1 5.5,5.4c1.1,0.3 6.7,0.9 6.7,0.9s4.6,-0.5 6.3,-0.8c-0.6,-5.8 -2.2,-17.9 -2.7,-20.6c-0.6,-3.1 -3.6,-18.1 -3.6,-18.1z"/>
         <path stroke="null" id="svg_26" fill="#d6d4c9" d="m55.3,46.2s-2.2,-8.9 -2.9,-11.3c-0.8,-2.5 -9.3,-21.9 -9.3,-21.9s3,15 3.5,18c0.5,2.8 2.2,14.8 2.7,20.6c0.2,0 0.3,-0.1 0.4,-0.1c1.2,-0.2 5.6,-5.3 5.6,-5.3z"/>
        </g>
        <path stroke="null" id="svg_27" fill="#648484" d="m54.7,68.9s0.6,-2.8 1.2,-3.4c0.6,-0.6 3.9,-2.3 3.9,-2.3s0.5,2.4 0.5,3.2c0,0.8 -1.5,2.7 -1.8,3.2c-0.4,0.5 -3.5,1.4 -3.5,1.4s-0.3,-1.2 -0.3,-2.1m-23.2,0s-0.6,-2.8 -1.2,-3.4c-0.6,-0.6 -3.9,-2.3 -3.9,-2.3s-0.5,2.4 -0.5,3.2c0,0.8 1.5,2.7 1.8,3.2c0.4,0.5 3.5,1.4 3.5,1.4s0.3,-1.2 0.3,-2.1"/>
       </svg>
      </g>
     </svg>
    </g>
    <!---->
   </g>
   <g stroke="null" id="svg_28">
    <g stroke="null" id="svg_29">
     <g stroke="null" id="svg_30">
      <path stroke="null" id="svg_31" d="m44.339111,20.132428l0,0l0,0q0,-7.861017 5.519004,-7.861017l0,0l6.27931,0l0,0q0.767094,0 1.56813,0.475191l0,0l0,0q0.794248,0.481979 1.147247,1.052209l0,0l0,0q0.346211,0.577018 0.502345,1.283016l0,0l0,0q0.149346,0.705998 0.183288,1.798937l0,0l0,0q0.013577,0.787459 0.013577,1.316958l0,0l0,0.373364l0,0q-0.013577,0.583806 -0.033942,1.459515l0,0l0,0q-0.020365,0.868921 -0.346211,1.764995l0,0l0,0q-0.319057,0.896074 -0.862132,1.357689l0,0l0,0q-0.536287,0.461614 -1.181189,0.617748l0,0l0,0q-0.644902,0.149346 -1.181189,0.142557l0,0l0,0q-0.529499,0 -3.944085,-0.006788l0,0l0,0q-3.407798,-0.006788 -3.407798,1.500246l0,0l0,0q0,1.513823 -2.117994,2.056898l0,0l0,0q-0.149346,0.033942 -0.271538,0.033942l0,0l0,0q-1.860033,0 -1.866822,-7.36546zm9.788935,-4.222411l-2.986915,0l0,0q-2.545666,0 -2.545666,2.172302l0,0l0,0q0,2.17909 2.545666,2.17909l0,0l3.020857,0l0,0q0.475191,0 0.855344,-0.495556l0,0l0,0q0.373364,-0.488768 0.352999,-1.126882l0,0l0,0q-0.020365,-0.631325 -0.047519,-1.167612l0,0l0,0q-0.020365,-0.536287 -0.380153,-1.052209l0,0l0,0q-0.359787,-0.509133 -0.814613,-0.509133l0,0zm11.784737,0.719575l0,0l0,0q2.002591,0 2.002591,2.952973l0,0l0,3.258453l0,0q0,0.30548 0.108615,0.712786l0,0l0,0q0.108615,0.414095 0.237595,0.590595l0,0l0,0q0.12898,0.169711 0.454826,0.380153l0,0l0,0q0.325845,0.210442 0.543075,0.224019l0,0l0,0q0.21723,0.020365 0.325845,0.033942l0,0l0,0q0.115404,0.020365 0.549864,-0.033942l0,0l0,0q0.43446,-0.047519 0.882498,-0.169711l0,0l0,0q0.448037,-0.115404 0.712786,-0.420883l0,0l0,0q0.257961,-0.30548 0.257961,-0.977536l0,0l0,-3.665759l0,0q0,-2.973338 2.05011,-2.973338l0,0l0,0q2.036533,0 2.05011,4.989505l0,0l0,0.033942l0,0q0,4.96914 -2.063687,5.593677l0,0l0,0q-2.063687,0.631325 -2.05011,0.224019l0,0l0,0q0.013577,-0.407307 -0.115404,-0.298691l0,0l0,0q-0.12898,0.108615 -0.386941,0.264749l0,0l0,0q-0.251172,0.156134 -0.767094,0.319057l0,0l0,0q-0.52271,0.162923 -0.875709,0.1765l0,0l0,0q-0.352999,0.013577 -0.583806,0.020365l0,0l-0.190076,0l0,0q-0.312268,0 -1.011478,-0.020365l0,0l0,0q-0.984324,-0.047519 -1.717476,-0.285115l0,0l0,0q-0.73994,-0.244384 -1.242285,-0.746729l0,0l0,0q-0.502345,-0.502345 -0.753517,-1.160824l0,0l0,0q-0.257961,-0.658479 -0.332634,-1.364477l0,0l0,0q-0.081461,-0.705998 -0.081461,-1.669957l0,0l0,-3.482471l0,0q0,-2.504935 1.995802,-2.504935zm14.235365,5.661561l0,0l0,0q0,-5.702292 1.955072,-5.702292l0,0l0,0q1.948283,0 1.941495,0.373364l0,0l0,0q-0.006788,0.380153 0.183288,0.230807l0,0l0,0q0.183288,-0.142557 0.583806,-0.373364l0,0l0,0q0.400518,-0.230807 0.997901,-0.298691l0,0l0,0q0.475191,-0.047519 0.889286,-0.047519l0,0l0.224019,0l0,0q0.509133,0.020365 1.018266,0.12898l0,0l0,0q0.515922,0.108615 1.00469,0.380153l0,0l0,0q0.488768,0.264749 0.862132,0.868921l0,0l0,0q0.373364,0.604171 0.454826,1.269439l0,0l0,0q0.08825,0.665267 0.101827,1.167612l0,0l0,0q0.006788,0.502345 0.020365,0.875709l0,0l0,0q0,0.366576 -1.96186,0.366576l0,0l0,0q-1.968648,0 -1.995802,-0.257961l0,0l0,0q-0.020365,-0.257961 -0.08825,-0.617748l0,0l0,0q-0.067884,-0.359787 -0.257961,-0.597383l0,0l0,0q-0.190076,-0.237595 -0.488768,-0.30548l0,0l0,0q-0.298691,-0.067884 -0.407307,-0.047519l0,0l0,0q-0.108615,0.013577 -0.359787,0.061096l0,0l0,0q-0.244384,0.054308 -0.509133,0.468403l0,0l0,0q-0.264749,0.407307 -0.264749,0.773882l0,0l0,0q0,0.366576 -0.006788,3.102318l0,0l0,0q-0.006788,2.742531 -1.941495,3.305972l0,0l0,0q-0.183288,0.054308 -0.339422,0.054308l0,0l0,0q-1.615649,0 -1.615649,-5.179582zm18.165873,-5.939887l2.511724,0l0,0q1.826091,0 2.321647,0.067884l0,0l0,0q0.495556,0.067884 1.208343,0.278326l0,0l0,0q0.705998,0.21723 1.181189,0.685633l0,0l0,0q0.475191,0.475191 0.753517,1.072574l0,0l0,0q0.285115,0.597383 0.285115,0.814613l0,0l0,0q0,0.210442 0.020365,0.909651l0,0l0,0q0.020365,0.69921 0.020365,1.771784l0,0l0,0q0,1.079362 -4.066277,1.079362l0,0l0,0q-4.066277,0 -4.066277,0.461614l0,0l0,0.685633l0,0q0,0.230807 0.135769,0.583806l0,0l0,0q0.142557,0.352999 0.448037,0.543075l0,0l0,0q0.30548,0.196865 0.712786,0.183288l0,0l0,0q0.414095,-0.013577 0.69921,-0.013577l0,0l0,0q0.291903,0 0.760306,-0.061096l0,0l0,0q0.475191,-0.061096 0.726363,-0.339422l0,0l0,0q0.244384,-0.271538 0.251172,-0.420883l0,0l0,0q0.006788,-0.142557 0.020365,-0.346211l0,0l0,0q0.020365,-0.203653 2.185879,-0.203653l0,0l0,0q2.172302,0 2.09084,0.509133l0,0l0,0q-0.08825,0.515922 -0.312268,1.025055l0,0l0,0q-0.224019,0.515922 -0.794248,1.092939l0,0l0,0q-0.570229,0.570229 -1.303381,0.834978l0,0l0,0q-0.733152,0.264749 -1.43915,0.264749l0,0l-4.602564,0l0,0q-0.801036,0 -1.500246,-0.190076l0,0l0,0q-0.692421,-0.190076 -1.269439,-0.753517l0,0l0,0q-0.577018,-0.563441 -0.753517,-1.22192l0,0l0,0q-0.183288,-0.658479 -0.183288,-1.065786l0,0l0,-4.364969l0,0q0,-0.39373 0.183288,-1.208343l0,0l0,0q0.1765,-0.814613 0.733152,-1.445938l0,0l0,0q0.549864,-0.631325 1.445938,-0.930017l0,0l0,0q0.896074,-0.298691 1.595284,-0.298691l0,0zm2.165513,4.392123l0,0l0,0q1.982225,0 2.009379,-0.278326l0,0l0,0q0.027154,-0.271538 -0.054308,-0.651691l0,0l0,0q-0.08825,-0.373364 -0.454826,-0.644902l0,0l0,0q-0.366576,-0.271538 -0.868921,-0.332634l0,0l0,0q-0.509133,-0.061096 -0.794248,-0.040731l0,0l0,0q-0.278326,0.020365 -0.597383,0.047519l0,0l0,0q-0.312268,0.033942 -0.73994,0.30548l0,0l0,0q-0.427672,0.278326 -0.420883,0.454826l0,0l0,0q0.013577,0.183288 -0.020365,0.665267l0,0l0,0q-0.033942,0.475191 1.941495,0.475191zm9.917915,-0.651691l0,0l0,0q0,-7.765979 6.129964,-7.765979l0,0l6.53727,0l0,0q0.407307,0 1.018266,0.149346l0,0l0,0q0.604171,0.142557 1.031843,0.726363l0,0l0,0q0.43446,0.590595 0.597383,1.208343l0,0l0,0q0.169711,0.617748 0.271538,1.595284l0,0l0,0q0.101827,0.977536 0.054308,1.276227l0,0l0,0q-0.054308,0.30548 -0.142557,0.821402l0,0l0,0q-0.08825,0.509133 -0.264749,0.665267l0,0l0,0q-0.1765,0.149346 -0.692421,0.678844l0,0l0,0q-0.52271,0.529499 -0.169711,0.712786l0,0l0,0q0.346211,0.1765 0.726363,0.502345l0,0l0,0q0.380153,0.319057 0.644902,0.923228l0,0l0,0q0.264749,0.604171 0.298691,1.378054l0,0l0,0q0.006788,0.339422 0.006788,0.617748l0,0l0,0q0,0.386941 -0.020365,0.692421l0,0l0,0q-0.047519,0.536287 -0.081461,0.936805l0,0l0,0q-0.040731,0.400518 -0.264749,0.970747l0,0l0,0q-0.21723,0.570229 -0.882498,1.018266l0,0l0,0q-0.665267,0.454826 -1.160824,0.556652l0,0l0,0q-0.495556,0.101827 -1.160824,0.101827l0,0l-6.571213,0l0,0q-5.905945,0 -5.905945,-7.765979zm10.54924,1.3509l-3.394221,0l0,0q-3.027645,0 -3.027645,1.513823l0,0l0,0q0,1.520611 3.027645,1.520611l0,0l3.373856,0l0,0q0.339422,0 0.665267,-0.359787l0,0l0,0q0.325845,-0.352999 0.312268,-0.733152l0,0l0,0q-0.006788,-0.386941 -0.020365,-0.617748l0,0l0,0q-0.013577,-0.230807 -0.285115,-0.773882l0,0l0,0q-0.278326,-0.549864 -0.651691,-0.549864l0,0zm-0.339422,-5.7566l-3.197357,0l0,0q-2.885088,0 -2.885088,1.43915l0,0l0,0q0,1.445938 2.8783,1.425573l0,0l0,0q2.8783,-0.013577 3.156626,-0.013577l0,0l0,0q0.278326,0 0.617748,-0.481979l0,0l0,0q0.346211,-0.475191 0.319057,-0.889286l0,0l0,0q-0.027154,-0.414095 -0.298691,-0.943594l0,0l0,0q-0.271538,-0.536287 -0.590595,-0.536287l0,0zm13.631193,0.665267l2.511724,0l0,0q1.826091,0 2.321647,0.067884l0,0l0,0q0.502345,0.067884 1.208343,0.278326l0,0l0,0q0.712786,0.21723 1.181189,0.685633l0,0l0,0q0.475191,0.475191 0.760306,1.072574l0,0l0,0q0.278326,0.597383 0.278326,0.814613l0,0l0,0q0,0.210442 0.020365,0.909651l0,0l0,0q0.027154,0.69921 0.027154,1.771784l0,0l0,0q0,1.079362 -4.073066,1.079362l0,0l0,0q-4.066277,0 -4.066277,0.461614l0,0l0,0.685633l0,0q0,0.230807 0.142557,0.583806l0,0l0,0q0.142557,0.352999 0.448037,0.543075l0,0l0,0q0.298691,0.196865 0.712786,0.183288l0,0l0,0q0.414095,-0.013577 0.69921,-0.013577l0,0l0,0q0.285115,0 0.760306,-0.061096l0,0l0,0q0.475191,-0.061096 0.719575,-0.339422l0,0l0,0q0.251172,-0.271538 0.257961,-0.420883l0,0l0,0q0,-0.142557 0.020365,-0.346211l0,0l0,0q0.013577,-0.203653 2.185879,-0.203653l0,0l0,0q2.165513,0 2.084052,0.509133l0,0l0,0q-0.081461,0.515922 -0.312268,1.025055l0,0l0,0q-0.224019,0.515922 -0.794248,1.092939l0,0l0,0q-0.563441,0.570229 -1.296593,0.834978l0,0l0,0q-0.733152,0.264749 -1.445938,0.264749l0,0l-4.595776,0l0,0q-0.801036,0 -1.500246,-0.190076l0,0l0,0q-0.69921,-0.190076 -1.276227,-0.753517l0,0l0,0q-0.570229,-0.563441 -0.753517,-1.22192l0,0l0,0q-0.1765,-0.658479 -0.1765,-1.065786l0,0l0,-4.364969l0,0q0,-0.39373 0.1765,-1.208343l0,0l0,0q0.183288,-0.814613 0.733152,-1.445938l0,0l0,0q0.549864,-0.631325 1.445938,-0.930017l0,0l0,0q0.896074,-0.298691 1.595284,-0.298691l0,0zm2.165513,4.392123l0,0l0,0q1.982225,0 2.009379,-0.278326l0,0l0,0q0.033942,-0.271538 -0.054308,-0.651691l0,0l0,0q-0.081461,-0.373364 -0.448037,-0.644902l0,0l0,0q-0.366576,-0.271538 -0.875709,-0.332634l0,0l0,0q-0.509133,-0.061096 -0.787459,-0.040731l0,0l0,0q-0.285115,0.020365 -0.597383,0.047519l0,0l0,0q-0.319057,0.033942 -0.746729,0.30548l0,0l0,0q-0.427672,0.278326 -0.414095,0.454826l0,0l0,0q0.006788,0.183288 -0.027154,0.665267l0,0l0,0q-0.033942,0.475191 1.941495,0.475191zm9.979011,1.547765l0,0l0,0q0,-5.702292 1.948283,-5.702292l0,0l0,0q1.948283,0 1.948283,0.373364l0,0l0,0q-0.006788,0.380153 0.1765,0.230807l0,0l0,0q0.190076,-0.142557 0.590595,-0.373364l0,0l0,0q0.39373,-0.230807 0.991113,-0.298691l0,0l0,0q0.475191,-0.047519 0.896074,-0.047519l0,0l0.224019,0l0,0q0.509133,0.020365 1.018266,0.12898l0,0l0,0q0.515922,0.108615 1.00469,0.380153l0,0l0,0q0.488768,0.264749 0.862132,0.868921l0,0l0,0q0.373364,0.604171 0.454826,1.269439l0,0l0,0q0.081461,0.665267 0.095038,1.167612l0,0l0,0q0.013577,0.502345 0.020365,0.875709l0,0l0,0q0,0.366576 -1.955072,0.366576l0,0l0,0q-1.975437,0 -1.995802,-0.257961l0,0l0,0q-0.027154,-0.257961 -0.095038,-0.617748l0,0l0,0q-0.061096,-0.359787 -0.257961,-0.597383l0,0l0,0q-0.190076,-0.237595 -0.488768,-0.30548l0,0l0,0q-0.298691,-0.067884 -0.407307,-0.047519l0,0l0,0q-0.101827,0.013577 -0.352999,0.061096l0,0l0,0q-0.251172,0.054308 -0.515922,0.468403l0,0l0,0q-0.264749,0.407307 -0.264749,0.773882l0,0l0,0q0,0.366576 0,3.102318l0,0l0,0q-0.006788,2.742531 -1.948283,3.305972l0,0l0,0q-0.1765,0.054308 -0.339422,0.054308l0,0l0,0q-1.608861,0 -1.608861,-5.179582zm14.296461,-4.385334l0,0l0,0q0,-1.398419 0.678844,-1.398419l0,0l0,0q0.672056,0 0.672056,-1.26265l0,0l0,0q0,-1.26265 1.96186,-1.26265l0,0l0,0q1.96186,0 1.96186,1.26265l0,0l0,0q0,1.26265 2.627127,1.26265l0,0l0,0q2.620339,0 2.131571,1.391631l0,0l0,0q-0.488768,1.391631 -2.627127,1.398419l0,0l0,0q-2.145148,0.006788 -2.145148,1.927918l0,0l0,2.389532l0,0q0,0.468403 0.047519,0.760306l0,0l0,0q0.040731,0.291903 0.278326,0.549864l0,0l0,0q0.230807,0.257961 0.481979,0.190076l0,0l0,0q0.251172,-0.067884 0.380153,-0.095038l0,0l0,0q0.12898,-0.027154 0.359787,-0.312268l0,0l0,0q0.230807,-0.278326 0.230807,-0.414095l0,0l0,0q-0.006788,-0.135769 0,-0.604171l0,0l0,0q0,-0.468403 1.805726,-0.468403l0,0l0,0q1.792149,0 1.792149,0.291903l0,0l0,0q-0.020365,0.298691 -0.054308,0.909651l0,0l0,0q-0.033942,0.617748 -0.183288,1.228708l0,0l0,0q-0.142557,0.617748 -0.481979,1.052209l0,0l0,0q-0.339422,0.441249 -0.801036,0.705998l0,0l0,0q-0.461614,0.264749 -1.065786,0.352999l0,0l0,0q-0.604171,0.095038 -1.22192,0.095038l0,0l0,0q-0.617748,0 -1.452727,0l0,0l-0.061096,0l0,0q-0.807825,0 -1.642803,-0.149346l0,0l0,0q-0.875709,-0.149346 -1.357689,-0.577018l0,0l0,0q-0.475191,-0.427672 -0.69921,-1.00469l0,0l0,0q-0.21723,-0.583806 -0.244384,-0.943594l0,0l0,0q-0.020365,-0.359787 -0.020365,-1.303381l0,0l0,-2.762896l0,0q0,-1.812514 -0.672056,-1.812514l0,0l0,0q-0.678844,0 -0.678844,-1.398419z"/>
     </g>
     <!---->
    </g>
    <!---->
   </g>
  </g>
 </g>
</svg>