<svg width="50" height="50" xmlns="http://www.w3.org/2000/svg" preserveAspectRatio="xMidYMid meet" class="el-tooltip">
 <g>
  <title>background</title>
  <rect x="-1" y="-1" width="52" height="52" id="canvas_background" fill="none"/>
 </g>

 <g>
  <title>Layer 1</title>
  <g fill="#41afa5" id="svg_3" stroke="null">
   <g id="svg_4" stroke="null">
    <rect fill="#41afa5" fill-opacity="0" x="2.064243" y="14.017475" width="37.195937" height="38.547602" id="svg_5" stroke="null"/>
    <g id="svg_34" transform="matrix(0.6603368196315353,0,0,0.6695742317871675,0.9067282476313223,4.392543506569547) " stroke="null">
     <svg x="-0.118795" y="9.001853" width="50" height="51.102088" id="svg_1">
      <g id="svg_2" stroke="null">
       <svg viewBox="0 0 86.2 88.1" id="svg_51">
        <path d="m81,47.6c0.7,-3.4 0.2,-11.9 -0.9,-17.1c-1.1,-5.1 -5.1,-14.6 -5.2,-14.8c-3.7,-4.1 -8.1,-7.7 -10.2,-9.2c-3.4,-2.5 -17.7,-4 -21.5,-4s-18.2,1.6 -21.5,4c-2,1.5 -6.4,5.1 -10.2,9.2c-0.1,0.3 -4.1,9.7 -5.2,14.8c-1.1,5.2 -1.6,13.7 -0.9,17.1c0.7,3.4 3.5,15.5 5.7,19.3c1.6,2.8 8,9.5 11.3,12.9c8.2,2.7 18,4.8 20.9,4.8c2.9,0 12.6,-2.2 20.9,-4.8c3.3,-3.4 9.7,-10.1 11.3,-12.9c2,-3.8 4.8,-15.9 5.5,-19.3z" fill="#9bb9bc" id="svg_71" stroke="null"/>
        <path d="m85.9,50.7c1.3,-6.9 -2.9,-19.5 -5.4,-26.5c-1,-2.8 -3.2,-5.8 -5.7,-8.5c0.1,0.2 4.1,9.6 5.2,14.8c1.1,5.2 1.6,13.7 0.9,17.1c-0.7,3.4 -3.5,15.5 -5.7,19.3c-1.6,2.8 -8,9.5 -11.3,12.9c4.1,-1.3 7.8,-2.7 10.1,-4.1c7.2,-4 10.6,-18 11.9,-25zm-80.7,-3.1c-0.7,-3.4 -0.2,-11.9 0.9,-17.1c1.1,-5.1 5.1,-14.4 5.2,-14.8c-2.5,2.8 -4.7,5.7 -5.7,8.5c-2.5,6.9 -6.7,19.5 -5.4,26.5c1.3,6.9 4.8,21 11.8,25c2.3,1.3 6,2.8 10.1,4.1c-3.3,-3.4 -9.7,-10.1 -11.3,-12.9c-2.1,-3.8 -4.9,-15.9 -5.6,-19.3z" fill="#7ba1a3" id="svg_70" stroke="null"/>
        <path d="m56.1,33.1c-0.3,-1.8 2,-4.4 3,-4.8c1,-0.4 5.1,0.3 6.3,1.3c1.2,1 0.7,4.8 0,6.1c-0.7,1.3 -4,1.8 -5.5,1.6c-1.4,-0.4 -3.5,-2.9 -3.8,-4.2z" fill="#212121" id="svg_69" stroke="null"/>
        <path d="m63.4,30.2c0.5,0 1.1,0.6 1.2,0.8c0.1,0.3 -0.2,1.3 -0.4,1.6c-0.3,0.3 -1.2,0.1 -1.5,-0.1c-0.3,-0.2 -0.4,-1 -0.3,-1.4c0,-0.4 0.7,-0.9 1,-0.9z" fill="#fff" id="svg_68" stroke="null"/>
        <path d="m30,33.1c0.3,-1.8 -2,-4.4 -3,-4.8c-1,-0.4 -5.1,0.3 -6.3,1.3c-1.2,1 -0.7,4.8 0,6.1c0.7,1.3 4,1.8 5.5,1.6c1.5,-0.4 3.6,-2.9 3.8,-4.2z" fill="#212121" id="svg_67" stroke="null"/>
        <path d="m26.7,30.2c0.5,0 1.1,0.6 1.2,0.8c0.1,0.3 -0.2,1.3 -0.4,1.6c-0.3,0.3 -1.2,0.1 -1.5,-0.1c-0.3,-0.2 -0.4,-1 -0.3,-1.4c0,-0.4 0.6,-0.9 1,-0.9z" fill="#fff" id="svg_66" stroke="null"/>
        <path d="m56.4,36.5s3.6,-1.4 5,-1.4s6.9,1 6.9,1l-5.7,3.4l-6.2,-3zm-26.6,0s-3.6,-1.4 -5,-1.4s-6.9,1 -6.9,1l5.7,3.4l6.2,-3zm35.1,-25.1l0,-4.4c0,-1.5 4.9,-5.5 6,-6.1c1.3,-0.7 12.3,-0.8 13.9,-0.9c0,0 -2.3,8.9 -3.2,11.4c-1,2.5 -4,4.8 -5.1,5.4c-1.1,0.6 -3.1,1.1 -3.1,1.1s-5.2,-2.4 -8.5,-6.5z" fill="#9bb9bc" id="svg_65" stroke="null"/>
        <path d="m70.9,10c-0.2,0.4 -0.5,2.4 -0.7,3.9c1,1.1 1.7,2 1.7,2s3.6,-0.8 4.8,-1.9c1.1,-1.1 3,-3.8 3.5,-5.5c0.5,-1.7 1.2,-6.5 1.2,-6.5s-5.6,2.1 -6.7,2.9s-3.6,4.4 -3.8,5.1z" fill="#7ba1a3" id="svg_64" stroke="null"/>
        <path d="m69.6,7.3c-0.5,1.2 -1.2,4.8 -1.2,4.8c0.6,0.6 1.2,1.3 1.7,1.9c0.2,-1.5 0.6,-3.5 0.7,-3.9c0.3,-0.7 2.7,-4.1 3.8,-5s6.7,-2.9 6.7,-2.9s-7.8,0.5 -8.4,0.8c-0.6,0.3 -2.8,3.1 -3.3,4.3z" fill="#648484" id="svg_63" stroke="null"/>
        <g id="svg_59" stroke="null">
         <path d="m21.3,11.4l0,-4.4c0,-1.5 -4.9,-5.5 -6,-6.1c-1.3,-0.7 -12.3,-0.8 -13.9,-0.9c0,0 2.3,8.9 3.2,11.4c1,2.5 4,4.8 5.1,5.4c1.1,0.6 3.1,1.1 3.1,1.1s5.2,-2.4 8.5,-6.5z" fill="#9bb9bc" id="svg_62" stroke="null"/>
         <path d="m15.3,10c0.2,0.4 0.5,2.4 0.7,3.9c-1,1.1 -1.7,2 -1.7,2s-3.6,-0.8 -4.8,-1.9c-1.1,-1.1 -3,-3.8 -3.5,-5.5c-0.4,-1.6 -1.1,-6.4 -1.1,-6.4s5.6,2.1 6.7,2.9c1,0.9 3.4,4.3 3.7,5z" fill="#7ba1a3" id="svg_61" stroke="null"/>
         <path d="m16.6,7.3c0.5,1.2 1.2,4.8 1.2,4.8c-0.6,0.6 -1.2,1.3 -1.7,1.9c-0.2,-1.5 -0.6,-3.5 -0.7,-3.9c-0.3,-0.7 -2.7,-4.1 -3.8,-5c-1.1,-0.8 -6.7,-2.9 -6.7,-2.9s7.8,0.5 8.4,0.9c0.6,0.2 2.8,3 3.3,4.2z" fill="#648484" id="svg_60" stroke="null"/>
        </g>
        <g id="svg_56" stroke="null">
         <path d="m66.2,71.1c-1.8,2.6 -16.3,6.8 -18.3,7.3s-4.8,0.8 -4.8,0.8s-2.8,-0.2 -4.8,-0.8c-2,-0.5 -16.5,-4.7 -18.3,-7.3c-1.8,-2.6 -5.4,-11.2 -6.6,-15.4c-1.2,-4.2 -1.8,-13.8 -1.8,-13.8s-0.2,13.6 0.2,17.4c0.5,3.8 5.1,15.5 6.1,17.3c1,1.8 6.4,6.3 6.4,6.3l18.7,5.3l18.7,-5.3s5.4,-4.5 6.4,-6.3c1,-1.8 5.7,-13.5 6.1,-17.3c0.5,-3.8 0.2,-17.4 0.2,-17.4s-0.5,9.7 -1.8,13.8c-1.1,4.3 -4.6,12.8 -6.4,15.4z" fill="#7ba1a3" id="svg_58" stroke="null"/>
         <path d="m11.1,38.8s-5.1,0.4 -5.2,0.6c-0.1,0.2 1.8,4.8 1.8,4.8l3.9,-2.4l4,-0.2l-4.5,-2.8zm69.1,0.7c-0.1,-0.2 -5.2,-0.6 -5.2,-0.6l-4.5,2.9l4,0.2l3.9,2.4c0.1,-0.1 1.9,-4.7 1.8,-4.9zm-9.6,2.2l-27.5,-1.7l-27.5,1.7l27.5,17.5l27.5,-17.5z" fill="#9bb9bc" id="svg_57" stroke="null"/>
        </g>
        <g id="svg_53" stroke="null">
         <path d="m43.1,12.9s-8.5,19.4 -9.3,21.9c-0.8,2.5 -2.9,11.3 -2.9,11.3s4.4,5.1 5.5,5.4c1.1,0.3 6.7,0.9 6.7,0.9s4.6,-0.5 6.3,-0.8c-0.6,-5.8 -2.2,-17.9 -2.7,-20.6c-0.6,-3.1 -3.6,-18.1 -3.6,-18.1z" fill="#eae9e1" id="svg_55" stroke="null"/>
         <path d="m55.3,46.2s-2.2,-8.9 -2.9,-11.3c-0.8,-2.5 -9.3,-21.9 -9.3,-21.9s3,15 3.5,18c0.5,2.8 2.2,14.8 2.7,20.6c0.2,0 0.3,-0.1 0.4,-0.1c1.2,-0.2 5.6,-5.3 5.6,-5.3z" fill="#d6d4c9" id="svg_54" stroke="null"/>
        </g>
        <path d="m54.7,68.9s0.6,-2.8 1.2,-3.4c0.6,-0.6 3.9,-2.3 3.9,-2.3s0.5,2.4 0.5,3.2c0,0.8 -1.5,2.7 -1.8,3.2c-0.4,0.5 -3.5,1.4 -3.5,1.4s-0.3,-1.2 -0.3,-2.1m-23.2,0s-0.6,-2.8 -1.2,-3.4c-0.6,-0.6 -3.9,-2.3 -3.9,-2.3s-0.5,2.4 -0.5,3.2c0,0.8 1.5,2.7 1.8,3.2c0.4,0.5 3.5,1.4 3.5,1.4s0.3,-1.2 0.3,-2.1" fill="#648484" id="svg_52" stroke="null"/>
       </svg>
      </g>
     </svg>
    </g>
    <!---->
   </g>
  </g>
 </g>
</svg>